<?xml version="1.0" encoding="UTF-8"?>
<svg width="100" height="100" viewBox="0 0 100 100" fill="none" xmlns="http://www.w3.org/2000/svg">
  <!-- Background -->
  <circle cx="50" cy="50" r="50" fill="#1A1B26" />
  
  <!-- Cat Silhouette (centered and scaled) -->
  <path d="M35 40C35 40 45 30 60 35C75 40 80 55 80 55C80 55 90 45 100 50C110 55 115 70 115 70L105 100L85 110L65 105L45 90L35 70V40Z" fill="#6C63FF" transform="scale(0.6) translate(10, 5)" />
  
  <!-- Cat ears -->
  <path d="M35 40L20 10L35 30V40Z" fill="#6C63FF" transform="scale(0.6) translate(10, 5)" />
  <path d="M35 40L50 5L40 30L35 40Z" fill="#6C63FF" transform="scale(0.6) translate(10, 5)" />
  
  <!-- Cat eyes -->
  <circle cx="38" cy="43" r="2.4" fill="#ffffff" />
  <circle cx="50" cy="43" r="2.4" fill="#ffffff" />
  
  <!-- Cat tail -->
  <path d="M45 90C45 90 25 100 15 95C5 90 -5 75 -5 75C-5 75 -10 65 -5 60" stroke="#6C63FF" stroke-width="3.6" stroke-linecap="round" transform="scale(0.6) translate(10, 5)" />
</svg> 